<svg width="51" height="7" viewBox="0 0 51 7" fill="none" xmlns="http://www.w3.org/2000/svg">
<path d="M51 0.00246207L48.5961 3.23639V5.86711H47.2734V3.23639L44.8695 0.00246207H46.509L47.9718 1.99458L49.4235 0.00246207H51ZM37.6134 0.00246207V1.16056H39.7326V5.86957H41.0439V1.1581H43.1607V0L37.6134 0.00246207ZM31.0548 1.16056H33.0054C33.5853 1.16056 33.8547 1.38491 33.8547 1.85917C33.8547 2.33312 33.5853 2.55717 33.0054 2.55717H31.0548V1.16025V1.16056ZM35.469 5.86957L33.9633 3.60939C34.77 3.38534 35.1909 2.79045 35.1909 1.85886C35.1909 0.651217 34.4763 0.00492414 33.1482 0.00492414H29.7432V5.86957H31.0548V3.71034H32.5005L33.9216 5.86711L35.469 5.86957ZM20.9535 0.00492414V5.86957H26.1234V4.71148H22.2669V3.49521H25.581V2.33712H22.2669V1.1584H26.1258V0L20.9535 0.00492414ZM16.8405 0.00492414L15.1536 4.34063L13.455 0.00338534H12.0324L14.4453 5.86803H15.7902L18.2034 0.00307759L16.8405 0.00461638V0.00492414ZM7.9539 5.86711H9.2649V0.00246207H7.9539V5.86711ZM0 5.86711H1.311V1.34675H0V5.86711ZM1.311 1.34767H5.7168V0.00153879H1.311V1.34798V1.34767Z" fill="white"/>
</svg>
