<svg width="32" height="32" viewBox="0 0 32 32" fill="none" xmlns="http://www.w3.org/2000/svg">
<path d="M21.2182 14V7.86663C21.2182 4.93329 18.9515 2.66663 16.0182 2.66663C13.0849 2.79996 10.8182 4.93329 10.8182 7.86663V14M27.3515 11.3333L29.3515 27.7333C29.4849 28.6666 28.5515 29.3333 27.7515 29.3333H4.28487C3.21821 29.3333 2.55154 28.5333 2.68487 27.7333L4.68487 11.3333C4.81821 10.5333 5.48487 9.99996 6.28487 9.99996H25.7515C26.6849 9.86663 27.2182 10.4 27.3515 11.3333ZM11.4849 14C11.4849 14.2666 11.2182 14.5333 10.9515 14.5333C10.6849 14.5333 10.4182 14.2666 10.4182 14C10.4182 13.7333 10.6849 13.4666 10.9515 13.4666C11.3515 13.4666 11.4849 13.7333 11.4849 14ZM21.2182 13.4666C21.4849 13.4666 21.7515 13.7333 21.7515 14C21.7515 14.2666 21.4849 14.5333 21.2182 14.5333C20.9515 14.5333 20.6849 14.2666 20.6849 14C20.6849 13.7333 20.9515 13.4666 21.2182 13.4666Z" stroke="#191919" stroke-width="2" stroke-linecap="round" stroke-linejoin="round"/>
</svg>
